<svg width="22" height="16" viewBox="0 0 22 16" fill="none" xmlns="http://www.w3.org/2000/svg">
<path d="M20.99 6.17415C21.2962 6.00989 21.552 5.76542 21.73 5.46693C21.9079 5.16843 22.0013 4.82716 22.0001 4.47966V2.58478C21.9995 2.07361 21.7962 1.58354 21.4347 1.22209C21.0733 0.860643 20.5832 0.657323 20.072 0.656738H2.19441C1.68324 0.657323 1.19318 0.860643 0.831729 1.22209C0.470279 1.58354 0.266959 2.07361 0.266374 2.58478V4.47819C0.265198 4.82569 0.358575 5.16696 0.536503 5.46546C0.714432 5.76395 0.970209 6.00842 1.27644 6.17268C1.60695 6.34965 1.88324 6.61299 2.07586 6.93462C2.26849 7.25626 2.37022 7.62414 2.37022 7.99905C2.37022 8.37395 2.26849 8.74183 2.07586 9.06347C1.88324 9.38511 1.60695 9.64845 1.27644 9.82542C0.969988 9.98979 0.714066 10.2345 0.536123 10.5333C0.35818 10.832 0.26493 11.1736 0.266374 11.5214V13.4148C0.266959 13.926 0.470279 14.416 0.831729 14.7775C1.19318 15.1389 1.68324 15.3422 2.19441 15.3428H20.072C20.5832 15.3422 21.0733 15.1389 21.4347 14.7775C21.7962 14.416 21.9995 13.926 22.0001 13.4148V11.5214C22.0013 11.1739 21.9079 10.8326 21.73 10.5341C21.552 10.2356 21.2962 9.99115 20.99 9.82689C19.5431 9.10268 19.5541 6.89836 20.99 6.17415ZM19.1703 9.4983C19.4658 10.0502 19.918 10.5024 20.4699 10.7979C20.7344 10.9408 20.8979 11.2178 20.895 11.5184V13.4118C20.8948 13.63 20.808 13.8392 20.6537 13.9935C20.4994 14.1478 20.2902 14.2346 20.072 14.2348H7.15485C7.12465 13.7559 7.34493 12.8394 6.6023 12.821C5.85894 12.8387 6.07996 13.7596 6.04975 14.2377H2.19441C1.97622 14.2375 1.76701 14.1508 1.61272 13.9965C1.45844 13.8422 1.37167 13.633 1.37148 13.4148V11.5214C1.37002 11.374 1.40884 11.2289 1.48376 11.102C1.55867 10.975 1.66683 10.8709 1.79657 10.8009C2.30309 10.5295 2.7265 10.1258 3.02168 9.63277C3.31686 9.13975 3.47275 8.57589 3.47275 8.00126C3.47275 7.42663 3.31686 6.86276 3.02168 6.36975C2.7265 5.87673 2.30309 5.47303 1.79657 5.20166C1.66683 5.13164 1.55867 5.02753 1.48376 4.90055C1.40884 4.77358 1.37002 4.62856 1.37148 4.48113V2.58478C1.37221 2.13021 1.73985 1.76258 2.19441 1.76184H6.04975C6.07996 2.24146 5.8582 3.16017 6.6023 3.17859C7.34567 3.1609 7.12465 2.23998 7.15485 1.76184H20.072C20.5266 1.76258 20.8942 2.13021 20.895 2.58478V4.47819C20.8979 4.77878 20.7344 5.05579 20.4699 5.19871C20.1022 5.39562 19.7768 5.66305 19.5125 5.98572C19.2482 6.30839 19.05 6.67998 18.9293 7.07926C18.8086 7.47854 18.7678 7.89769 18.8091 8.31276C18.8505 8.72782 18.9732 9.13068 19.1703 9.4983Z" fill="white"/>
</svg>
