<svg width="22" height="16" viewBox="0 0 22 16" fill="none" xmlns="http://www.w3.org/2000/svg">
<path d="M15.7897 8.52931C13.5721 8.58236 13.5684 11.8328 15.7853 11.8918C18.0028 11.838 18.0058 8.58899 15.7897 8.52931ZM15.2114 10.2128C15.2121 9.45833 16.3592 9.45539 16.3636 10.2098C16.3607 10.962 15.2172 10.965 15.2114 10.2128ZM11.3685 7.46988C13.5854 7.41389 13.5854 4.16341 11.3685 4.10742C9.15096 4.16415 9.15244 7.41242 11.3685 7.46988ZM11.3685 5.21326C12.1222 5.21621 12.1222 6.36257 11.3685 6.36552C10.6149 6.36183 10.6156 5.21768 11.3685 5.21326ZM17.1667 4.41759C17.0628 4.31356 16.922 4.25497 16.775 4.2547C16.628 4.25442 16.487 4.31247 16.3828 4.41611L9.98053 10.7881C9.92765 10.839 9.88542 10.8999 9.85632 10.9672C9.82721 11.0345 9.81181 11.107 9.811 11.1804C9.8102 11.2537 9.82401 11.3265 9.85163 11.3945C9.87925 11.4624 9.92013 11.5242 9.97189 11.5762C10.0236 11.6282 10.0852 11.6694 10.1531 11.6973C10.2209 11.7253 10.2936 11.7394 10.367 11.739C10.4403 11.7385 10.5129 11.7234 10.5803 11.6947C10.6478 11.6659 10.7089 11.6239 10.76 11.5713L17.163 5.2C17.2147 5.14892 17.2558 5.08813 17.284 5.02114C17.3121 4.95414 17.3268 4.88224 17.3271 4.80956C17.3275 4.73688 17.3135 4.66485 17.2859 4.59758C17.2584 4.53032 17.2179 4.46916 17.1667 4.41759ZM6.60333 4.71155C6.45679 4.71155 6.31624 4.76976 6.21262 4.87338C6.109 4.97701 6.05078 5.11755 6.05078 5.2641V6.68084C6.05078 6.82739 6.109 6.96793 6.21262 7.07155C6.31624 7.17518 6.45679 7.23339 6.60333 7.23339C6.74988 7.23339 6.89042 7.17518 6.99405 7.07155C7.09767 6.96793 7.15588 6.82739 7.15588 6.68084V5.2641C7.15588 5.11755 7.09767 4.97701 6.99405 4.87338C6.89042 4.76976 6.74988 4.71155 6.60333 4.71155ZM6.60333 8.76654C6.45679 8.76654 6.31624 8.82475 6.21262 8.92838C6.109 9.032 6.05078 9.17255 6.05078 9.31909V10.7351C6.05078 10.8816 6.109 11.0222 6.21262 11.1258C6.31624 11.2294 6.45679 11.2876 6.60333 11.2876C6.74988 11.2876 6.89042 11.2294 6.99405 11.1258C7.09767 11.0222 7.15588 10.8816 7.15588 10.7351V9.31909C7.15588 9.17255 7.09767 9.032 6.99405 8.92838C6.89042 8.82475 6.74988 8.76654 6.60333 8.76654Z" fill="white"/>
<path d="M20.9893 6.17366C21.2955 6.0094 21.5513 5.76494 21.7292 5.46644C21.9071 5.16795 22.0005 4.82667 21.9993 4.47917V2.58429C21.9988 2.07312 21.7954 1.58306 21.434 1.22161C21.0725 0.860155 20.5825 0.656835 20.0713 0.65625H2.19368C1.68251 0.656835 1.19245 0.860155 0.830997 1.22161C0.469546 1.58306 0.266226 2.07312 0.265642 2.58429V4.4777C0.264465 4.8252 0.357842 5.16647 0.535771 5.46497C0.7137 5.76346 0.969477 6.00793 1.27571 6.17219C1.60622 6.34916 1.88251 6.6125 2.07513 6.93414C2.26775 7.25577 2.36949 7.62365 2.36949 7.99856C2.36949 8.37346 2.26775 8.74134 2.07513 9.06298C1.88251 9.38462 1.60622 9.64796 1.27571 9.82493C0.969256 9.9893 0.713334 10.234 0.535391 10.5328C0.357448 10.8316 0.264197 11.1731 0.265642 11.5209V13.4143C0.266226 13.9255 0.469546 14.4155 0.830997 14.777C1.19245 15.1384 1.68251 15.3418 2.19368 15.3423H20.0713C20.5825 15.3418 21.0725 15.1384 21.434 14.777C21.7954 14.4155 21.9988 13.9255 21.9993 13.4143V11.5209C22.0005 11.1734 21.9071 10.8321 21.7292 10.5336C21.5513 10.2351 21.2955 9.99066 20.9893 9.8264C19.5423 9.10219 19.5534 6.89788 20.9893 6.17366ZM19.1695 9.49782C19.4651 10.0497 19.9172 10.5019 20.4691 10.7974C20.7336 10.9403 20.8972 11.2174 20.8942 11.5179V13.4114C20.8941 13.6296 20.8073 13.8388 20.653 13.993C20.4987 14.1473 20.2895 14.2341 20.0713 14.2343H7.15412C7.12392 13.7554 7.3442 12.8389 6.60157 12.8205C5.8582 12.8382 6.07922 13.7591 6.04902 14.2372H2.19368C1.97548 14.237 1.76628 14.1503 1.61199 13.996C1.4577 13.8417 1.37094 13.6325 1.37075 13.4143V11.5209C1.36929 11.3735 1.40811 11.2284 1.48303 11.1015C1.55794 10.9745 1.6661 10.8704 1.79584 10.8004C2.30236 10.529 2.72576 10.1253 3.02094 9.63228C3.31612 9.13926 3.47202 8.5754 3.47202 8.00077C3.47202 7.42614 3.31612 6.86228 3.02094 6.36926C2.72576 5.87624 2.30236 5.47254 1.79584 5.20117C1.6661 5.13115 1.55794 5.02704 1.48303 4.90007C1.40811 4.77309 1.36929 4.62807 1.37075 4.48065V2.58429C1.37148 2.12972 1.73911 1.76209 2.19368 1.76135H6.04902C6.07922 2.24097 5.85747 3.15968 6.60157 3.1781C7.34494 3.16042 7.12392 2.2395 7.15412 1.76135H20.0713C20.5259 1.76209 20.8935 2.12972 20.8942 2.58429V4.4777C20.8972 4.77829 20.7336 5.0553 20.4691 5.19823C20.1014 5.39513 19.7761 5.66256 19.5118 5.98523C19.2474 6.3079 19.0492 6.67949 18.9286 7.07877C18.8079 7.47805 18.767 7.8972 18.8084 8.31227C18.8497 8.72734 18.9725 9.13019 19.1695 9.49782Z" fill="white"/>
</svg>
