<svg width="25" height="26" viewBox="0 0 25 26" fill="none" xmlns="http://www.w3.org/2000/svg">
<path d="M0.988394 6.30654C0.937428 5.72885 0.971096 5.14681 1.08833 4.57885C1.2452 3.87144 1.55322 3.28419 2.00366 2.8339C2.63484 2.20224 3.52249 1.85603 4.63852 1.80477C5.1791 1.78448 5.72031 1.82137 6.25314 1.91484L6.39503 1.10794C5.8041 1.00426 5.20384 0.963499 4.60431 0.986348C3.27438 1.04774 2.20445 1.47432 1.42465 2.25477C0.861389 2.81783 0.478853 3.54095 0.288077 4.40489C0.287749 4.40649 0.287257 4.40825 0.286929 4.40981C0.152813 5.05692 0.114278 5.72018 0.172554 6.37847L0.988394 6.30654ZM2.78481 11.6588C2.5381 11.2086 2.31189 10.7562 2.1123 10.3138L1.36564 10.6507C1.57389 11.1121 1.80969 11.5839 2.06665 12.0525L2.78481 11.6588ZM0.410695 7.88925C0.513404 8.32811 0.638204 8.7615 0.784619 9.18777L1.55978 8.92298C1.42227 8.52296 1.30508 8.11624 1.20866 7.70438L0.410695 7.88925ZM5.98338 16.1696C5.94766 16.1288 5.91206 16.0882 5.87667 16.0474L5.2585 16.5845C5.29471 16.6263 5.33108 16.6681 5.36791 16.7099C5.57866 16.9498 5.79313 17.1864 6.01122 17.4196C6.10973 17.5248 6.20895 17.6293 6.30887 17.7331L6.8992 17.1652C6.58653 16.8402 6.28118 16.5083 5.98338 16.1696ZM4.26886 15.381L4.91537 14.8783C4.85609 14.8019 4.79724 14.7253 4.73882 14.6483C4.49212 14.3239 4.25295 13.9939 4.02149 13.6586L3.34709 14.1235C3.58573 14.4692 3.83233 14.8094 4.08669 15.1438C4.14687 15.2232 4.20758 15.3023 4.26882 15.381L4.26886 15.381ZM7.00554 18.4344C7.77932 19.1895 8.59361 19.902 9.44477 20.5687C10.5991 21.4772 11.8312 22.2821 13.1268 22.9743C13.8836 23.3771 14.6678 23.7261 15.4737 24.0186L14.7256 24.2328L14.9508 25.0203L17.0452 24.421C17.2625 24.3588 17.3883 24.132 17.3261 23.9144L16.7804 22.0069L15.9927 22.2321L16.3397 23.4439C15.3619 23.1346 14.415 22.7352 13.511 22.2509C12.2582 21.5815 11.0668 20.8031 9.95075 19.9245C9.12265 19.276 8.33039 18.5829 7.57749 17.8484L7.00554 18.4344ZM23.7856 18.5683C23.6184 17.5235 23.2728 16.3996 22.7584 15.2278L22.0084 15.557C22.4948 16.6651 22.8204 17.722 22.9766 18.6976C23.2698 20.5292 22.9478 21.974 22.0457 22.8764C21.599 23.3232 21.0179 23.6295 20.3187 23.7871C19.7534 23.9143 19.1124 23.9446 18.4132 23.8776C18.2408 23.8611 18.063 23.8382 17.8846 23.81L17.7567 24.619C17.9512 24.6497 18.1459 24.6746 18.335 24.6928C18.6014 24.7183 18.8609 24.7311 19.1136 24.7311C19.5792 24.7339 20.0438 24.6852 20.4988 24.586C21.3516 24.3936 22.0669 24.0133 22.6249 23.4553C23.7204 22.3598 24.1217 20.6701 23.7856 18.5683H23.7856ZM21.8 13.3312L21.0884 13.7367C21.2824 14.0768 21.4668 14.4223 21.6412 14.7727L22.3749 14.4086C22.1937 14.044 22.002 13.6847 21.8 13.3312ZM19.8988 10.4841L19.2481 10.9816C19.5545 11.3824 19.8499 11.7914 20.1342 12.2082L20.8111 11.747C20.5185 11.3179 20.2143 10.8968 19.8988 10.4841ZM17.874 8.11685L17.2817 8.68237C17.63 9.04736 17.9683 9.42175 18.2963 9.80513L18.9188 9.27283C18.581 8.87814 18.2326 8.49268 17.874 8.11685ZM7.72451 3.86037L8.52543 3.68915L8.261 2.45198C9.01269 2.71863 9.74398 3.03965 10.4491 3.4125C11.6856 4.06532 12.8626 4.82519 13.9666 5.6834C14.487 6.085 15.0113 6.52085 15.5248 6.97856C15.9427 7.35189 16.35 7.73687 16.7462 8.13305L17.3253 7.55396C17.1999 7.42849 17.0733 7.30411 16.9457 7.18086C16.6592 6.904 16.3674 6.63274 16.0704 6.36723C15.5424 5.89677 15.003 5.44837 14.4685 5.0359C13.9478 4.63106 13.4088 4.24758 12.8558 3.88456C13.1643 3.7103 13.4774 3.54407 13.7945 3.38605L13.4301 2.65252C13.0626 2.83485 12.6874 3.03571 12.3151 3.24908L12.5753 3.70306C12.008 3.34162 11.4264 3.00307 10.8319 2.68824C10.3026 2.40882 9.75919 2.15698 9.20384 1.93375L9.92557 1.77963L9.75476 0.978516L7.62474 1.4338C7.57214 1.44502 7.52227 1.4665 7.47798 1.497C7.43368 1.5275 7.39583 1.56643 7.36658 1.61156C7.33733 1.65669 7.31727 1.70714 7.30752 1.76003C7.29777 1.81292 7.29854 1.86721 7.30978 1.9198L7.72451 3.86037ZM0.129576 18.6324C0.0258746 19.2234 -0.0148159 19.8236 0.0081884 20.4232C0.0692104 21.753 0.49579 22.8227 1.2764 23.6031C1.83946 24.1663 2.56307 24.5485 3.42652 24.7391C3.42816 24.7393 3.42989 24.7398 3.43181 24.7401C3.88347 24.8338 4.34353 24.881 4.80481 24.881C5.00329 24.881 5.20178 24.8724 5.4001 24.855L5.32817 24.0387C4.75048 24.09 4.1684 24.0563 3.60049 23.9386C2.89291 23.7823 2.30582 23.4746 1.85554 23.0239C1.22403 22.3925 0.87771 21.5047 0.826448 20.3889C0.805993 19.8482 0.842875 19.3069 0.936477 18.774L0.129576 18.6324ZM9.67225 23.6617C10.1341 23.4536 10.6057 23.2175 11.074 22.9608L10.6805 22.2427C10.2306 22.4892 9.77802 22.7155 9.3354 22.915L9.67225 23.6617ZM6.91089 24.6167C7.34975 24.5141 7.78315 24.3893 8.20941 24.2428L7.94461 23.4675C7.54458 23.6051 7.13787 23.7223 6.72602 23.8188L6.91089 24.6167ZM15.0692 19.1505L15.606 19.7691C15.6481 19.7328 15.69 19.6963 15.7318 19.6596C15.9715 19.4487 16.2081 19.2342 16.4414 19.0162C16.5466 18.9177 16.6512 18.8184 16.7551 18.7184L16.187 18.1283C16.086 18.2257 15.9842 18.3222 15.8817 18.4179C15.6548 18.6302 15.4246 18.8389 15.1911 19.044C15.1506 19.0796 15.11 19.1152 15.0692 19.1505Z" fill="white"/>
<path d="M12.6802 21.0053L13.1451 21.6799C13.491 21.4414 13.8312 21.1948 14.1655 20.9405C14.2449 20.8802 14.3239 20.8195 14.4026 20.7583L13.9 20.1115C13.5021 20.4211 13.0954 20.7192 12.6803 21.0053H12.6802ZM17.7192 2.05032C19.5507 1.75751 20.9957 2.07935 21.8981 2.98156C22.3445 3.42799 22.651 4.00917 22.8088 4.70842C22.9358 5.27394 22.9664 5.915 22.8991 6.61409C22.8828 6.78612 22.8601 6.96377 22.8316 7.14257L23.6406 7.27052C23.6714 7.07544 23.6962 6.88081 23.7145 6.69225C23.7898 5.90684 23.7539 5.17892 23.6076 4.52851C23.4154 3.67564 23.0351 2.96007 22.4772 2.40214C21.3814 1.30657 19.6912 0.90513 17.59 1.24153C16.5457 1.4086 15.4215 1.75431 14.2495 2.26853L14.5787 3.01871C15.6867 2.53234 16.7433 2.20652 17.7192 2.05036V2.05032ZM8.82649 6.73084L8.29398 6.10852C7.89949 6.44626 7.51409 6.79449 7.13822 7.15283L7.70386 7.74537C8.06883 7.39711 8.44318 7.05881 8.82649 6.73084ZM11.23 4.89309L10.7685 4.21614C10.3395 4.50889 9.91838 4.8131 9.50569 5.12844L10.0033 5.77913C10.404 5.47265 10.8131 5.1772 11.23 4.89313L11.23 4.89309ZM23.4426 7.98232C23.3805 7.76473 23.1537 7.63899 22.9363 7.70116L21.0285 8.24708L21.2538 9.03458L22.4658 8.68777C22.1562 9.6655 21.7567 10.6125 21.2723 11.5165C20.603 12.7693 19.8246 13.9607 18.946 15.0767C18.2974 15.9048 17.6043 16.697 16.8697 17.4498L17.4559 18.0219C18.211 17.2481 18.9234 16.4338 19.5901 15.5827C20.4987 14.4284 21.3037 13.1963 21.9957 11.9006C22.3985 11.1438 22.7475 10.3596 23.0401 9.55376L23.2542 10.3019L24.0417 10.0766L23.4426 7.98232ZM0.855743 17.7266C0.884449 17.7266 0.913279 17.7236 0.941616 17.7174L2.88189 17.3028L2.71064 16.5017L1.47363 16.7663C1.74018 16.0145 2.06121 15.2833 2.43415 14.5782C3.0868 13.3416 3.84661 12.1645 4.70484 11.0606C5.10632 10.5402 5.54221 10.0159 6.00004 9.50233C6.25825 9.2132 6.52213 8.92919 6.79152 8.65045C6.91152 8.52622 7.03259 8.40302 7.1547 8.28087L6.57561 7.70182C6.16823 8.10897 5.77246 8.52757 5.38876 8.95712C4.91776 9.48491 4.46974 10.0244 4.05739 10.5588C3.17023 11.7001 2.38474 12.917 1.70993 14.1954C1.4302 14.7245 1.17835 15.268 0.955396 15.8234L0.801118 15.1013L0 15.2724L0.455286 17.4024C0.474904 17.4941 0.525353 17.5763 0.598223 17.6353C0.671094 17.6943 0.761983 17.7265 0.855743 17.7266ZM8.48861 9.75417V16.2513C8.48861 16.5979 8.68312 17.086 9.66927 17.4428C10.3078 17.6738 11.1425 17.8012 12.029 17.8012H12.0608C12.5729 17.8012 13.084 17.7544 13.5876 17.6616C14.8643 17.4167 15.6046 16.9026 15.6046 16.2513V9.75417C15.6046 9.40736 15.3878 8.91959 14.4015 8.56248C13.7628 8.33152 12.9168 8.20414 12.0292 8.20414C11.1413 8.20414 10.3103 8.33152 9.67165 8.56248C8.6855 8.91943 8.48861 9.40732 8.48861 9.75417ZM13.4343 16.8566C12.971 16.9425 12.5006 16.9845 12.0294 16.9821C11.2337 16.9821 10.5018 16.872 9.95043 16.6727C9.41108 16.4775 9.30773 16.2817 9.30773 16.2513V15.1081C9.42422 15.1698 9.54505 15.2229 9.66927 15.267C10.3078 15.4982 11.1426 15.6254 12.0307 15.6254C12.919 15.6254 13.7664 15.4982 14.4049 15.267C14.5449 15.2164 14.6319 15.1631 14.7855 15.1078V16.2511C14.7855 16.328 14.4539 16.661 13.4343 16.8566V16.8566ZM14.7856 14.0754C14.7856 14.1061 14.6623 14.3017 14.1231 14.497C13.5716 14.6966 12.8249 14.8063 12.0292 14.8063C11.2337 14.8063 10.5018 14.6966 9.95043 14.497C9.41108 14.3017 9.30773 14.106 9.30773 14.0754V12.9473C9.42418 13.0091 9.54502 13.0623 9.66927 13.1064C10.3078 13.3375 11.1426 13.4647 12.0307 13.4647C12.919 13.4647 13.7664 13.3375 14.4049 13.1064C14.5449 13.0558 14.6319 13.0024 14.7855 12.9473L14.7856 14.0754ZM14.1231 12.3362C13.5716 12.5358 12.8249 12.6455 12.0292 12.6455C11.2337 12.6455 10.5018 12.5358 9.95043 12.3362C9.41108 12.141 9.30773 11.9453 9.30773 11.9149V10.7865C9.42426 10.8481 9.54509 10.9013 9.66927 10.9455C10.308 11.1767 11.1427 11.3039 12.0307 11.3039C12.9187 11.3039 13.7662 11.1765 14.4049 10.9455C14.5449 10.8948 14.6319 10.8414 14.7855 10.7865V11.9149C14.7855 11.9453 14.6623 12.141 14.1231 12.3362ZM9.93555 9.33272C10.4871 9.13296 11.2289 9.02322 12.0243 9.02322C12.8194 9.02322 13.5615 9.13296 14.113 9.33272C14.6521 9.52797 14.7657 9.72358 14.7657 9.75417C14.7657 9.78444 14.6521 9.98005 14.113 10.1753C13.5615 10.3751 12.8195 10.4848 12.0243 10.4848C11.2289 10.4848 10.4871 10.3748 9.93555 10.1753C9.39615 9.98005 9.28276 9.78444 9.28276 9.75417C9.28276 9.72358 9.39636 9.52797 9.93571 9.33272H9.93555Z" fill="white"/>
</svg>
