<svg width="24" height="24" viewBox="0 0 24 24" fill="none" xmlns="http://www.w3.org/2000/svg">
<path d="M15.8824 7.6L8.11765 14.2M15.8824 14.2H15.8707M8.12929 7.6H8.11765M10.5428 22.4632L7.91576 21.1377C7.248 20.8011 6.91541 20.6328 6.544 20.624C6.14541 20.613 5.80635 20.7747 5.08553 21.1377C4.278 21.5447 2.67329 22.6667 1.63541 22.1321C1 21.8043 1 20.9727 1 19.3106V7.6C1 4.4892 1 2.9327 2.13753 1.9669C3.27377 1 5.10494 1 8.76471 1H15.2353C18.8951 1 20.7262 1 21.8625 1.9669C23 2.9327 23 4.4892 23 7.6V19.3106C23 20.9727 23 21.8043 22.3659 22.1321C21.3267 22.6667 19.722 21.5447 18.9145 21.1377C18.248 20.8011 17.9141 20.6328 17.5453 20.624C17.1441 20.613 16.8051 20.7747 16.0855 21.1377L13.4585 22.4632C12.7493 22.8207 12.3947 23 12 23C11.6053 23 11.2507 22.8207 10.5428 22.4632Z" stroke="white" stroke-width="1.5" stroke-linecap="round" stroke-linejoin="round"/>
</svg>
