<svg width="24" height="24" viewBox="0 0 24 24" fill="none" xmlns="http://www.w3.org/2000/svg">
<path d="M5.14286 24H4.28571C4.05839 24 3.84037 23.9097 3.67962 23.7489C3.51888 23.5882 3.42857 23.3702 3.42857 23.1429V4.28571C3.42857 2.868 2.27486 1.71429 0.857143 1.71429C0.629814 1.71429 0.411797 1.62398 0.251051 1.46323C0.0903058 1.30249 0 1.08447 0 0.857143C0 0.629814 0.0903058 0.411797 0.251051 0.251051C0.411797 0.0903058 0.629814 0 0.857143 0H16.2857C18.6489 0 20.5714 1.92257 20.5714 4.28571V18.8571C20.5714 19.0845 20.4811 19.3025 20.3204 19.4632C20.1596 19.624 19.9416 19.7143 19.7143 19.7143C19.487 19.7143 19.2689 19.624 19.1082 19.4632C18.9474 19.3025 18.8571 19.0845 18.8571 18.8571V4.28571C18.8571 2.868 17.7034 1.71429 16.2857 1.71429H4.284C4.84239 2.45518 5.14392 3.35797 5.14286 4.28571V22.2857C5.37019 22.2857 5.5882 22.376 5.74895 22.5368C5.90969 22.6975 6 22.9155 6 23.1429C6 23.3702 5.90969 23.5882 5.74895 23.7489C5.5882 23.9097 5.37019 24 5.14286 24Z" fill="white"/>
<path d="M18.8566 24.0003H5.1423C4.91497 24.0003 4.69695 23.91 4.53621 23.7492C4.37546 23.5885 4.28516 23.3705 4.28516 23.1431C4.28516 22.9158 4.37546 22.6978 4.53621 22.537C4.69695 22.3763 4.91497 22.286 5.1423 22.286C6.17344 22.286 8.57087 22.0357 8.57087 19.7146C8.57087 19.4872 8.66118 19.2692 8.82192 19.1085C8.98267 18.9477 9.20068 18.8574 9.42801 18.8574H23.1423C23.3696 18.8574 23.5876 18.9477 23.7484 19.1085C23.9091 19.2692 23.9994 19.4872 23.9994 19.7146C23.9994 22.3186 21.98 24.0003 18.8566 24.0003ZM9.42544 22.286H18.8566C19.7429 22.286 21.6414 22.1008 22.1549 20.5717H10.2072C10.093 21.1992 9.82433 21.7883 9.42544 22.286ZM17.1423 8.57171H6.85658C6.62926 8.57171 6.41124 8.4814 6.25049 8.32066C6.08975 8.15991 5.99944 7.94189 5.99944 7.71456C5.99944 7.48724 6.08975 7.26922 6.25049 7.10847C6.41124 6.94773 6.62926 6.85742 6.85658 6.85742H17.1423C17.3696 6.85742 17.5876 6.94773 17.7484 7.10847C17.9091 7.26922 17.9994 7.48724 17.9994 7.71456C17.9994 7.94189 17.9091 8.15991 17.7484 8.32066C17.5876 8.4814 17.3696 8.57171 17.1423 8.57171Z" fill="white"/>
<path d="M15.4286 10.2862C15.2591 10.2862 15.0934 10.2359 14.9525 10.1417C14.8115 10.0475 14.7017 9.91365 14.6368 9.75705C14.572 9.60045 14.555 9.42814 14.5881 9.26189C14.6211 9.09564 14.7027 8.94293 14.8226 8.82306L15.9309 7.71477L14.8226 6.60649C14.7407 6.52742 14.6754 6.43284 14.6305 6.32826C14.5856 6.22369 14.5619 6.11121 14.5609 5.9974C14.5599 5.88359 14.5816 5.77072 14.6247 5.66538C14.6678 5.56004 14.7315 5.46434 14.8119 5.38386C14.8924 5.30338 14.9881 5.23974 15.0935 5.19664C15.1988 5.15354 15.3117 5.13186 15.4255 5.13284C15.5393 5.13383 15.6518 5.15748 15.7563 5.2024C15.8609 5.24732 15.9555 5.31262 16.0346 5.39449L17.7489 7.10877C17.9095 7.26951 17.9998 7.48749 17.9998 7.71477C17.9998 7.94206 17.9095 8.16004 17.7489 8.32077L16.0346 10.0351C15.9551 10.1148 15.8606 10.178 15.7566 10.2211C15.6526 10.2642 15.5411 10.2863 15.4286 10.2862ZM17.1429 13.7148H6.85714C6.62981 13.7148 6.4118 13.6245 6.25105 13.4637C6.09031 13.303 6 13.085 6 12.8576C6 12.6303 6.09031 12.4123 6.25105 12.2515C6.4118 12.0908 6.62981 12.0005 6.85714 12.0005H17.1429C17.3702 12.0005 17.5882 12.0908 17.7489 12.2515C17.9097 12.4123 18 12.6303 18 12.8576C18 13.085 17.9097 13.303 17.7489 13.4637C17.5882 13.6245 17.3702 13.7148 17.1429 13.7148Z" fill="white"/>
<path d="M8.57125 15.4288C8.45867 15.4289 8.34718 15.4068 8.24319 15.3637C8.13919 15.3206 8.04474 15.2574 7.96525 15.1776L6.25096 13.4634C6.09027 13.3026 6 13.0846 6 12.8574C6 12.6301 6.09027 12.4121 6.25096 12.2514L7.96525 10.5371C8.04431 10.4552 8.1389 10.3899 8.24347 10.345C8.34805 10.3001 8.46052 10.2764 8.57433 10.2754C8.68814 10.2744 8.80101 10.2961 8.90635 10.3392C9.01169 10.3823 9.10739 10.446 9.18787 10.5264C9.26835 10.6069 9.33199 10.7026 9.37509 10.808C9.41819 10.9133 9.43988 11.0262 9.43889 11.14C9.4379 11.2538 9.41425 11.3663 9.36933 11.4708C9.32441 11.5754 9.25911 11.67 9.17725 11.7491L8.06896 12.8574L9.17725 13.9656C9.29708 14.0855 9.37869 14.2382 9.41175 14.4045C9.4448 14.5707 9.42783 14.743 9.36297 14.8996C9.29811 15.0562 9.18828 15.1901 9.04735 15.2843C8.90643 15.3785 8.74075 15.4287 8.57125 15.4288Z" fill="white"/>
</svg>
