<svg width="22" height="22" viewBox="0 0 22 22" fill="none" xmlns="http://www.w3.org/2000/svg">
<path d="M19.2417 17.7002C19.5092 17.4893 19.7257 17.2206 19.8749 16.9143C20.0241 16.6079 20.1023 16.2719 20.1034 15.9311C20.1034 14.6764 19.0823 13.6553 17.8276 13.6553C16.5728 13.6553 15.5517 14.6764 15.5517 15.9311C15.5517 16.648 15.8916 17.2815 16.4112 17.6987C16.0926 17.8133 15.7952 17.9787 15.5115 18.1676C14.7941 17.2279 13.8023 16.5344 12.6735 16.183C13.0916 15.9069 13.4347 15.5316 13.6722 15.0905C13.9097 14.6494 14.0342 14.1563 14.0345 13.6553C14.0345 11.9818 12.6735 10.6208 11 10.6208C9.32648 10.6208 7.96552 11.9818 7.96552 13.6553C7.96552 14.7098 8.50793 15.6391 9.32648 16.183C8.19793 16.5345 7.20649 17.228 6.48924 18.1676C6.20915 17.9752 5.90679 17.8176 5.58876 17.698C5.85561 17.487 6.07146 17.2186 6.22027 16.9127C6.36908 16.6068 6.44701 16.2713 6.44828 15.9311C6.44828 14.6764 5.42717 13.6553 4.17241 13.6553C2.91765 13.6553 1.89655 14.6764 1.89655 15.9311C1.89655 16.6496 2.23793 17.283 2.75834 17.7002C1.1531 18.2814 0 19.8168 0 21.6208C0 21.7214 0.0399629 21.8179 0.111097 21.889C0.182232 21.9601 0.278711 22.0001 0.37931 22.0001H9.48276C9.58336 22.0001 9.67984 21.9601 9.75097 21.889C9.82211 21.8179 9.86207 21.7214 9.86207 21.6208C9.86207 21.5202 9.82211 21.4237 9.75097 21.3526C9.67984 21.2815 9.58336 21.2415 9.48276 21.2415H6.08338C6.27759 18.6986 8.40855 16.6898 11 16.6898C13.5914 16.6898 15.7224 18.6986 15.9166 21.2415H12.5172C12.4166 21.2415 12.3202 21.2815 12.249 21.3526C12.1779 21.4237 12.1379 21.5202 12.1379 21.6208C12.1379 21.7214 12.1779 21.8179 12.249 21.889C12.3202 21.9601 12.4166 22.0001 12.5172 22.0001H21.6207C21.7213 22.0001 21.8178 21.9601 21.8889 21.889C21.96 21.8179 22 21.7214 22 21.6208C22 19.8176 20.8469 18.2814 19.2417 17.7002ZM2.65517 15.9311C2.65517 15.0944 3.33566 14.4139 4.17241 14.4139C5.00917 14.4139 5.68966 15.0944 5.68966 15.9311C5.68966 16.7679 5.00917 17.4484 4.17241 17.4484C3.33566 17.4484 2.65517 16.7679 2.65517 15.9311ZM0.779862 21.2415C0.969517 19.5369 2.41848 18.207 4.17241 18.207C4.84834 18.207 5.50607 18.4209 6.06821 18.7957C5.63814 19.5437 5.38537 20.3805 5.32931 21.2415H0.779862ZM8.72414 13.6553C8.72414 12.4005 9.74524 11.3794 11 11.3794C12.2548 11.3794 13.2759 12.4005 13.2759 13.6553C13.2759 14.91 12.2548 15.9311 11 15.9311C9.74524 15.9311 8.72414 14.91 8.72414 13.6553ZM16.3103 15.9311C16.3103 15.0944 16.9908 14.4139 17.8276 14.4139C18.6643 14.4139 19.3448 15.0944 19.3448 15.9311C19.3448 16.7679 18.6643 17.4484 17.8276 17.4484C16.9908 17.4484 16.3103 16.7679 16.3103 15.9311ZM16.6707 21.2415C16.6146 20.3805 16.3619 19.5437 15.9318 18.7957C16.4918 18.4168 17.1514 18.2119 17.8276 18.207C18.667 18.208 19.4767 18.5179 20.1023 19.0775C20.728 19.6371 21.1259 20.4074 21.2201 21.2415H16.6707ZM12.5172 5.31045C12.6178 5.31045 12.7143 5.27049 12.7855 5.19936C12.8566 5.12822 12.8966 5.03174 12.8966 4.93114C12.8966 4.83054 12.8566 4.73407 12.7855 4.66293C12.7143 4.5918 12.6178 4.55183 12.5172 4.55183H11.3793V4.17252C11.3793 4.07192 11.3393 3.97544 11.2682 3.90431C11.1971 3.83318 11.1006 3.79321 11 3.79321C10.8994 3.79321 10.8029 3.83318 10.7318 3.90431C10.6607 3.97544 10.6207 4.07192 10.6207 4.17252V4.55183H10.2414C9.614 4.55183 9.10345 5.06239 9.10345 5.68976C9.10345 6.31714 9.614 6.8277 10.2414 6.8277H10.6207V7.58632H9.48276C9.38216 7.58632 9.28568 7.62628 9.21455 7.69741C9.14341 7.76855 9.10345 7.86503 9.10345 7.96563C9.10345 8.06623 9.14341 8.16271 9.21455 8.23384C9.28568 8.30497 9.38216 8.34494 9.48276 8.34494H10.6207V8.72425C10.6207 8.82485 10.6607 8.92133 10.7318 8.99246C10.8029 9.0636 10.8994 9.10356 11 9.10356C11.1006 9.10356 11.1971 9.0636 11.2682 8.99246C11.3393 8.92133 11.3793 8.82485 11.3793 8.72425V8.34494H11.7586C12.386 8.34494 12.8966 7.83439 12.8966 7.20701C12.8966 6.57963 12.386 6.06908 11.7586 6.06908H11.3793V5.31045H12.5172ZM11.7586 6.8277C11.8592 6.8277 11.9557 6.86766 12.0268 6.93879C12.098 7.00993 12.1379 7.10641 12.1379 7.20701C12.1379 7.30761 12.098 7.40408 12.0268 7.47522C11.9557 7.54635 11.8592 7.58632 11.7586 7.58632H11.3793V6.8277H11.7586ZM10.6207 6.06908H10.2414C10.1408 6.06908 10.0443 6.02911 9.97317 5.95798C9.90203 5.88684 9.86207 5.79036 9.86207 5.68976C9.86207 5.58917 9.90203 5.49269 9.97317 5.42155C10.0443 5.35042 10.1408 5.31045 10.2414 5.31045H10.6207V6.06908Z" fill="white"/>
<path d="M14.5563 10.89C14.4778 10.9529 14.4275 11.0443 14.4165 11.1443C14.4055 11.2442 14.4346 11.3445 14.4975 11.4229C14.5603 11.5014 14.6518 11.5517 14.7518 11.5627C14.8517 11.5737 14.9519 11.5446 15.0304 11.4817C15.7865 10.879 16.3966 10.1132 16.8152 9.24165C17.2339 8.37007 17.4502 7.41518 17.4481 6.44828C17.4481 2.89262 14.5555 0 10.9998 0C7.44419 0 4.55157 2.89262 4.55157 6.44828C4.54948 7.41518 4.76583 8.37007 5.18447 9.24165C5.60312 10.1132 6.21325 10.879 6.9693 11.4817C7.00815 11.5129 7.05275 11.536 7.10056 11.5499C7.14837 11.5638 7.19845 11.5682 7.24794 11.5627C7.29743 11.5572 7.34535 11.5421 7.38898 11.5181C7.43262 11.4941 7.4711 11.4618 7.50223 11.4229C7.53336 11.3841 7.55653 11.3395 7.57043 11.2917C7.58432 11.2439 7.58866 11.1938 7.5832 11.1443C7.57775 11.0948 7.56259 11.0469 7.53861 11.0032C7.51463 10.9596 7.48229 10.9211 7.44343 10.89C6.77651 10.3579 6.2383 9.68213 5.86894 8.91306C5.49957 8.14398 5.30858 7.30145 5.31019 6.44828C5.31019 3.31062 7.86219 0.758621 10.9998 0.758621C14.1375 0.758621 16.6895 3.31062 16.6895 6.44828C16.6911 7.30145 16.5001 8.14398 16.1308 8.91306C15.7614 9.68213 15.2232 10.3579 14.5563 10.89ZM1.51709 6.44828C1.51709 6.54888 1.55705 6.64535 1.62819 6.71649C1.69932 6.78762 1.7958 6.82759 1.8964 6.82759H2.65502C2.75562 6.82759 2.8521 6.78762 2.92323 6.71649C2.99437 6.64535 3.03433 6.54888 3.03433 6.44828C3.03433 6.34768 2.99437 6.2512 2.92323 6.18006C2.8521 6.10893 2.75562 6.06897 2.65502 6.06897H1.8964C1.7958 6.06897 1.69932 6.10893 1.62819 6.18006C1.55705 6.2512 1.51709 6.34768 1.51709 6.44828ZM20.1033 6.82759C20.2039 6.82759 20.3004 6.78762 20.3715 6.71649C20.4426 6.64535 20.4826 6.54888 20.4826 6.44828C20.4826 6.34768 20.4426 6.2512 20.3715 6.18006C20.3004 6.10893 20.2039 6.06897 20.1033 6.06897H19.3447C19.2441 6.06897 19.1476 6.10893 19.0765 6.18006C19.0053 6.2512 18.9654 6.34768 18.9654 6.44828C18.9654 6.54888 19.0053 6.64535 19.0765 6.71649C19.1476 6.78762 19.2441 6.82759 19.3447 6.82759H20.1033ZM3.58357 10.2922L2.92661 10.6715C2.88312 10.6962 2.84495 10.7293 2.81431 10.7689C2.78366 10.8084 2.76113 10.8536 2.74802 10.9019C2.73492 10.9502 2.73149 11.0005 2.73794 11.0501C2.74438 11.0998 2.76058 11.1476 2.78559 11.1909C2.81061 11.2342 2.84394 11.2722 2.88368 11.3026C2.92341 11.333 2.96877 11.3552 3.01713 11.368C3.06549 11.3808 3.11591 11.3838 3.16547 11.3771C3.21503 11.3703 3.26276 11.3538 3.30592 11.3285L3.96288 10.9492C4.00637 10.9244 4.04454 10.8914 4.07518 10.8518C4.10583 10.8123 4.12836 10.7671 4.14147 10.7188C4.15457 10.6705 4.158 10.6201 4.15155 10.5705C4.14511 10.5209 4.12891 10.4731 4.1039 10.4298C4.07888 10.3865 4.04555 10.3485 4.00581 10.3181C3.96608 10.2877 3.92072 10.2655 3.87236 10.2527C3.824 10.2399 3.77358 10.2368 3.72402 10.2436C3.67446 10.2504 3.62673 10.2669 3.58357 10.2922ZM18.2272 2.65517C18.2917 2.65517 18.3562 2.63924 18.4169 2.60434L19.0731 2.22503C19.1166 2.20031 19.1547 2.16723 19.1854 2.12769C19.216 2.08816 19.2386 2.04295 19.2517 1.99468C19.2648 1.9464 19.2682 1.89601 19.2618 1.8464C19.2553 1.7968 19.2391 1.74896 19.2141 1.70563C19.1891 1.66231 19.1558 1.62437 19.116 1.59398C19.0763 1.5636 19.0309 1.54137 18.9826 1.52858C18.9342 1.5158 18.8838 1.5127 18.8342 1.51948C18.7847 1.52626 18.7369 1.54277 18.6938 1.56807L18.0368 1.94738C17.9645 1.98913 17.908 2.05357 17.876 2.13072C17.8441 2.20786 17.8385 2.29339 17.8601 2.37404C17.8817 2.45469 17.9293 2.52595 17.9956 2.57678C18.0618 2.62761 18.143 2.65517 18.2265 2.65517H18.2272ZM18.0368 10.9492L18.6938 11.3285C18.7805 11.3738 18.8813 11.3839 18.9753 11.3567C19.0692 11.3294 19.149 11.2669 19.198 11.1822C19.247 11.0975 19.2613 10.9972 19.238 10.9021C19.2147 10.8071 19.1557 10.7248 19.0731 10.6723L18.4161 10.293C18.373 10.2655 18.3247 10.2471 18.2742 10.2388C18.2237 10.2305 18.1721 10.2325 18.1224 10.2447C18.0727 10.2568 18.026 10.2789 17.9851 10.3096C17.9441 10.3403 17.9098 10.379 17.8842 10.4232C17.8586 10.4675 17.8423 10.5165 17.8361 10.5673C17.8299 10.6181 17.8341 10.6696 17.8483 10.7188C17.8626 10.7679 17.8866 10.8136 17.919 10.8532C17.9514 10.8928 17.9915 10.9255 18.0368 10.9492ZM3.96288 1.94738L3.30592 1.56807C3.26274 1.54062 3.21447 1.5222 3.16399 1.51389C3.11351 1.50559 3.06187 1.50758 3.01218 1.51976C2.9625 1.53193 2.91578 1.55402 2.87486 1.58472C2.83393 1.61541 2.79963 1.65406 2.77403 1.69835C2.74843 1.74264 2.73205 1.79165 2.72588 1.84244C2.71972 1.89322 2.72388 1.94473 2.73814 1.99386C2.75239 2.04299 2.77643 2.08873 2.80882 2.12833C2.84121 2.16793 2.88128 2.20056 2.92661 2.22428L3.58357 2.60359C3.67026 2.64893 3.77112 2.65903 3.86508 2.63178C3.95903 2.60452 4.03883 2.54201 4.08779 2.45731C4.13675 2.37261 4.15109 2.27227 4.12781 2.17724C4.10454 2.08222 4.04545 1.99986 3.96288 1.94738Z" fill="white"/>
<path d="M10.9999 22.0001C11.2094 22.0001 11.3792 21.8303 11.3792 21.6208C11.3792 21.4113 11.2094 21.2415 10.9999 21.2415C10.7904 21.2415 10.6206 21.4113 10.6206 21.6208C10.6206 21.8303 10.7904 22.0001 10.9999 22.0001Z" fill="white"/>
</svg>
