<svg width="20" height="23" viewBox="0 0 20 23" fill="none" xmlns="http://www.w3.org/2000/svg">
<path d="M19.2111 17.5466C18.971 16.1045 17.9598 14.9211 16.5724 14.4586L13.4926 13.4321V12.9742H12.7767V13.6458L12.2423 15.783L10.7965 14.0481H9.74526L8.29952 15.783L7.76546 13.6458V12.9742H7.04957V13.4321L3.9698 14.4586C2.58276 14.9211 1.57156 16.1045 1.33102 17.5466L0.541748 22.2808H20.0001L19.2111 17.5466ZM8.52896 21.565H4.58153L4.9001 18.3792L4.18779 18.308L3.86206 21.5653H1.38722L2.03725 17.6648C2.23376 16.4846 3.06133 15.5167 4.19638 15.138L7.15409 14.1519L7.9473 17.3244L8.75447 16.3558L9.18149 16.9965L8.52896 21.565ZM11.2902 21.565H9.25201L9.92889 16.8268L9.23232 15.782L10.0807 14.764H10.4612L11.3095 15.782L10.6129 16.8268L11.2902 21.565ZM16.6801 21.565L16.3544 18.3076L15.6421 18.3789L15.9606 21.5646H12.0132L11.3607 16.9961L11.7877 16.3554L12.5949 17.324L13.3881 14.1515L16.3458 15.1377C17.4808 15.516 18.308 16.4843 18.5049 17.6644L19.1549 21.565H16.6801Z" fill="white"/>
<path d="M5.77603 9.73276C5.95858 10.361 6.29577 10.9369 6.77112 11.4122L8.16711 12.8082C8.50501 13.1461 8.95424 13.3323 9.43245 13.3323H11.1101C11.588 13.3323 12.0376 13.1461 12.3755 12.8082L13.7715 11.4122C14.2468 10.9369 14.584 10.3606 14.7666 9.73276C15.6582 9.63182 16.3562 8.88156 16.3562 7.96307C16.3562 7.37568 16.0677 6.85774 15.6292 6.53129H15.6403V4.38361C15.6403 3.48767 14.9781 2.74314 14.1176 2.61393C13.5789 1.11485 12.1375 0.0882568 10.5288 0.0882568H10.2711C7.31055 0.0882568 4.90193 2.49688 4.90193 5.45745V6.53129H4.91302C4.47454 6.85774 4.18604 7.37568 4.18604 7.96307C4.18604 8.88156 4.88403 9.63182 5.77603 9.73276ZM14.2085 8.62778C14.2085 9.48864 13.8735 10.2976 13.265 10.9061L11.869 12.3021C11.6693 12.5018 11.3926 12.6164 11.1098 12.6164H9.43209C9.14932 12.6164 8.87298 12.5018 8.67289 12.3021L7.2769 10.9061C6.66839 10.2976 6.33335 9.48864 6.33335 8.62814V6.88923H7.73972C9.31505 6.88923 10.8045 6.32976 11.9814 5.30496L12.0909 5.48752C12.5477 6.24887 13.338 6.755 14.2085 6.86525V8.62778ZM15.6403 7.96307C15.6403 8.4352 15.3318 8.83288 14.9076 8.97606C14.9176 8.86116 14.9244 8.74519 14.9244 8.62814V6.9551C15.34 7.10329 15.6403 7.49703 15.6403 7.96307ZM5.61782 5.45745C5.61782 2.89169 7.70536 0.804149 10.2711 0.804149H10.5288C11.9041 0.804149 13.1286 1.72765 13.5066 3.05026L13.5807 3.30977H13.8506C14.4426 3.30977 14.9244 3.79157 14.9244 4.38361V6.20949C14.8066 6.18544 14.6867 6.17333 14.5665 6.17334C13.8083 6.17334 13.095 5.76958 12.7048 5.11919L12.1317 4.16419L11.8074 4.48849C10.7211 5.57486 9.27675 6.17334 7.74008 6.17334H5.97577C5.85335 6.17334 5.73344 6.18587 5.61782 6.20949V5.45745ZM5.61782 6.9551V8.62814C5.61782 8.74519 5.62462 8.86116 5.63464 8.97642C5.21048 8.83288 4.90193 8.4352 4.90193 7.96307C4.90193 7.49703 5.20224 7.10329 5.61782 6.9551Z" fill="white"/>
</svg>
