<svg width="26" height="18" viewBox="0 0 26 18" fill="none" xmlns="http://www.w3.org/2000/svg">
<path d="M22.4863 8.00956C23.2477 7.47453 23.7519 6.58455 23.7519 5.58138C23.7519 3.9403 22.4246 2.61304 20.7835 2.61304C19.1425 2.61304 17.8152 3.9403 17.8152 5.58138C17.8152 6.58455 18.3142 7.47453 19.0807 8.00956C18.4274 8.23591 17.8306 8.58573 17.3265 9.03844C16.632 8.44683 15.814 7.99412 14.9189 7.72661C16.0044 7.06812 16.7349 5.86947 16.7349 4.50619C16.7349 2.42784 15.0526 0.745605 12.9743 0.745605C10.8959 0.745605 9.21369 2.43298 9.21369 4.50619C9.21369 5.86947 9.93906 7.06812 11.0297 7.72661C10.1448 7.99412 9.33716 8.44169 8.6478 9.02301C8.14365 8.58059 7.55718 8.23591 6.91413 8.0147C7.6755 7.47968 8.17966 6.58969 8.17966 5.58652C8.17966 3.94545 6.85239 2.61818 5.21132 2.61818C3.57024 2.61818 2.24298 3.94545 2.24298 5.58652C2.24298 6.58969 2.74199 7.47968 3.50851 8.0147C1.46617 8.71949 0 10.6589 0 12.9379V13.2775C0 13.2878 0.0102889 13.298 0.0205778 13.298H6.31223C6.27622 13.581 6.25564 13.8742 6.25564 14.1675V14.5173C6.25564 16.0297 7.48002 17.2541 8.99248 17.2541H16.9664C18.4788 17.2541 19.7032 16.0297 19.7032 14.5173V14.1675C19.7032 13.8742 19.6826 13.581 19.6466 13.298H25.9794C25.9897 13.298 26 13.2878 26 13.2775V12.9379C25.9897 10.6538 24.5287 8.71434 22.4863 8.00956ZM18.6383 5.57623C18.6383 4.39301 19.6003 3.431 20.7835 3.431C21.9668 3.431 22.9288 4.39301 22.9288 5.57623C22.9288 6.74402 21.9873 7.69574 20.8247 7.72147H20.7424C19.5746 7.70089 18.6383 6.74917 18.6383 5.57623ZM10.0265 4.50619C10.0265 2.88569 11.3435 1.56872 12.964 1.56872C14.5845 1.56872 15.9015 2.88569 15.9015 4.50619C15.9015 6.0701 14.6719 7.35107 13.1338 7.43852H12.7942C11.256 7.35107 10.0265 6.0701 10.0265 4.50619ZM3.05065 5.57623C3.05065 4.39301 4.01266 3.431 5.19588 3.431C6.37911 3.431 7.34112 4.39301 7.34112 5.57623C7.34112 6.74402 6.39968 7.69574 5.23704 7.72147H5.15473C3.99209 7.70089 3.05065 6.74917 3.05065 5.57623ZM6.45627 12.4698H0.833399C1.0649 10.2783 2.9169 8.56001 5.16502 8.54458H5.22675C6.29679 8.54972 7.27424 8.94584 8.03047 9.5889C7.28967 10.3914 6.73922 11.3792 6.45627 12.4698ZM18.8698 14.5173C18.8698 15.5719 18.0107 16.431 16.9561 16.431H8.98219C7.92758 16.431 7.06846 15.5719 7.06846 14.5173V14.1675C7.06846 10.9728 9.6201 8.35938 12.7942 8.26678C12.8508 8.27192 12.9125 8.27192 12.9691 8.27192C13.0257 8.27192 13.0875 8.27192 13.144 8.26678C16.3182 8.35938 18.8698 10.9728 18.8698 14.1675V14.5173ZM19.482 12.4698C19.1991 11.3843 18.6589 10.412 17.9232 9.60948C18.6846 8.95099 19.6723 8.55487 20.7527 8.54458H20.8144C23.0625 8.56001 24.9145 10.2783 25.146 12.4698H19.482Z" fill="white"/>
</svg>
