<svg width="24" height="24" viewBox="0 0 24 24" fill="none" xmlns="http://www.w3.org/2000/svg">
<mask id="path-1-outside-1_155_47243" maskUnits="userSpaceOnUse" x="0.12793" y="0.0742188" width="24" height="24" fill="black">
<rect fill="white" x="0.12793" y="0.0742188" width="24" height="24"/>
<path d="M8.9348 10.4426H15.1809C15.4911 10.4414 15.7882 10.3176 16.0075 10.0983C16.2269 9.87895 16.3506 9.58183 16.3519 9.27166C16.3441 8.79398 16.1839 7.00748 15.4457 7.309C15.3518 7.35262 15.279 7.43177 15.2434 7.52904C15.2078 7.62631 15.2123 7.73374 15.2559 7.82769C15.4293 8.24248 15.9297 9.60677 15.1809 9.66184H8.9348C8.83128 9.66174 8.73203 9.62054 8.65887 9.54731C8.58571 9.47407 8.54461 9.37479 8.54461 9.27127C8.54965 8.67858 8.70381 8.0967 8.99289 7.57926C9.28196 7.06183 9.69664 6.62549 10.1987 6.31047C10.7008 5.99545 11.2741 5.81189 11.8657 5.7767C12.4574 5.74152 13.0484 5.85585 13.5842 6.10915C13.6773 6.15455 13.7846 6.16113 13.8825 6.12744C13.9805 6.09374 14.061 6.02254 14.1064 5.92948C14.2951 5.52602 13.833 5.3358 13.5221 5.24128C13.9006 4.9379 14.1754 4.52443 14.3087 4.05805C14.442 3.59167 14.4271 3.0954 14.266 2.63786C14.105 2.18032 13.8058 1.78411 13.4098 1.504C13.0138 1.22388 12.5406 1.0737 12.0556 1.07422C11.5705 1.07474 11.0976 1.22593 10.7022 1.50689C10.3068 1.78785 10.0085 2.1847 9.84842 2.64258C9.68837 3.10046 9.67452 3.59676 9.80877 4.06286C9.94303 4.52895 10.2188 4.94183 10.5979 5.24441C10.0033 5.44925 9.46401 5.78847 9.02189 6.2357C8.01147 7.14027 6.80029 10.2391 8.9348 10.4426ZM12.0579 1.85459C12.472 1.85459 12.8692 2.0191 13.162 2.31195C13.4549 2.60479 13.6194 3.00197 13.6194 3.41612C13.6194 3.83026 13.4549 4.22744 13.162 4.52028C12.8692 4.81313 12.472 4.97764 12.0579 4.97764C11.6437 4.97764 11.2465 4.81313 10.9537 4.52028C10.6608 4.22744 10.4963 3.83026 10.4963 3.41612C10.4963 3.00197 10.6608 2.60479 10.9537 2.31195C11.2465 2.0191 11.6437 1.85459 12.0579 1.85459ZM8.80942 19.8009C8.71557 19.8445 8.64287 19.9235 8.60728 20.0207C8.57169 20.1179 8.57612 20.2252 8.6196 20.3191C8.79302 20.7339 9.29374 22.0986 8.54461 22.1537H2.29888C2.19529 22.1537 2.09595 22.1125 2.0227 22.0393C1.94945 21.966 1.9083 21.8667 1.9083 21.7631C1.90858 21.145 2.07182 20.538 2.38156 20.0031C2.6913 19.4682 3.1366 19.0245 3.67254 18.7166C4.16932 18.4364 4.72612 18.2797 5.2961 18.2595C5.86608 18.2393 6.43257 18.3563 6.94793 18.6006C6.99402 18.6233 7.04412 18.6366 7.09537 18.6398C7.14662 18.643 7.198 18.6361 7.24656 18.6194C7.29513 18.6027 7.33991 18.5766 7.37834 18.5425C7.41678 18.5085 7.4481 18.4671 7.47052 18.4209C7.65917 18.0175 7.19673 17.8273 6.88583 17.7331C7.26433 17.4298 7.53924 17.0163 7.67255 16.5499C7.80585 16.0835 7.79097 15.5872 7.62996 15.1297C7.46895 14.6721 7.16976 14.2759 6.77376 13.9957C6.37776 13.7156 5.90451 13.5654 5.41944 13.5659C4.93437 13.5664 4.46144 13.7176 4.06604 13.9986C3.67064 14.2796 3.3723 14.6765 3.21227 15.1344C3.05223 15.5923 3.03841 16.0886 3.17272 16.5547C3.30702 17.0208 3.58281 17.4337 3.96196 17.7363C3.72715 17.8165 3.50019 17.9181 3.28392 18.0397C2.62895 18.416 2.08478 18.9584 1.70626 19.6121C1.32774 20.2658 1.12826 21.0077 1.12793 21.7631C1.12824 22.0736 1.25169 22.3713 1.47121 22.5909C1.69073 22.8105 1.98839 22.934 2.29888 22.9345H8.54461C8.85485 22.9332 9.15203 22.8094 9.37137 22.59C9.59071 22.3706 9.71443 22.0734 9.71556 21.7631C9.70775 21.2862 9.54722 19.4982 8.80942 19.8009ZM5.42194 14.3464C5.83176 14.3529 6.22259 14.5203 6.51011 14.8124C6.79763 15.1045 6.95878 15.4979 6.95878 15.9078C6.95878 16.3176 6.79763 16.7111 6.51011 17.0032C6.22259 17.2953 5.83176 17.4626 5.42194 17.4691C5.01213 17.4626 4.62129 17.2953 4.33377 17.0032C4.04625 16.7111 3.88511 16.3176 3.88511 15.9078C3.88511 15.4979 4.04625 15.1045 4.33377 14.8124C4.62129 14.5203 5.01213 14.3529 5.42194 14.3464ZM21.7301 18.7275C21.288 18.2801 20.7485 17.9409 20.1538 17.7363C20.5329 17.4337 20.8087 17.0208 20.943 16.5547C21.0773 16.0886 21.0635 15.5923 20.9034 15.1344C20.7434 14.6765 20.4451 14.2796 20.0497 13.9986C19.6543 13.7176 19.1813 13.5664 18.6963 13.5659C18.2112 13.5654 17.738 13.7156 17.342 13.9957C16.946 14.2759 16.6468 14.6721 16.4858 15.1297C16.3247 15.5872 16.3099 16.0835 16.4432 16.5499C16.5765 17.0163 16.8514 17.4298 17.2299 17.7331C16.9194 17.8277 16.4562 18.0171 16.6456 18.4213C16.691 18.5144 16.7716 18.5856 16.8695 18.6193C16.9674 18.653 17.0747 18.6464 17.1678 18.601C19.4265 17.466 22.2594 19.2201 22.2074 21.7631C22.2074 21.8667 22.1663 21.966 22.093 22.0393C22.0198 22.1125 21.9204 22.1537 21.8168 22.1537H15.5711C14.8208 22.1017 15.3246 20.73 15.4961 20.3191C15.5396 20.2252 15.544 20.1179 15.5084 20.0207C15.4728 19.9235 15.4001 19.8445 15.3063 19.8009C14.5716 19.4942 14.4076 21.285 14.4002 21.7631C14.4013 22.0734 14.525 22.3706 14.7443 22.59C14.9637 22.8094 15.2609 22.9332 15.5711 22.9345H21.8168C23.9533 22.7302 22.7386 19.6309 21.7301 18.7275ZM18.6938 14.3464C19.1036 14.3529 19.4944 14.5203 19.7819 14.8124C20.0695 15.1045 20.2306 15.4979 20.2306 15.9078C20.2306 16.3176 20.0695 16.7111 19.7819 17.0032C19.4944 17.2953 19.1036 17.4626 18.6938 17.4691C18.284 17.4626 17.8931 17.2953 17.6056 17.0032C17.3181 16.7111 17.1569 16.3176 17.1569 15.9078C17.1569 15.4979 17.3181 15.1045 17.6056 14.8124C17.8931 14.5203 18.284 14.3529 18.6938 14.3464ZM14.7903 17.8597C14.867 17.8585 14.9417 17.8349 15.0051 17.7918C15.0685 17.7488 15.118 17.6881 15.1473 17.6172C15.1767 17.5464 15.1847 17.4685 15.1703 17.3932C15.1559 17.3179 15.1198 17.2484 15.0665 17.1934L12.448 14.5749V11.6139C12.4435 11.5135 12.4005 11.4186 12.3278 11.3491C12.2551 11.2796 12.1584 11.2408 12.0579 11.2408C11.9573 11.2408 11.8606 11.2796 11.7879 11.3491C11.7152 11.4186 11.6722 11.5135 11.6677 11.6139V14.5749L9.04924 17.1934C8.97985 17.2673 8.94197 17.3654 8.94362 17.4669C8.94526 17.5683 8.98631 17.6651 9.05806 17.7368C9.12981 17.8085 9.22665 17.8495 9.32808 17.8511C9.42951 17.8526 9.52757 17.8147 9.60151 17.7452L12.0579 15.2885L14.5146 17.7452C14.5508 17.7815 14.5937 17.8103 14.641 17.83C14.6884 17.8496 14.7391 17.8597 14.7903 17.8597Z"/>
</mask>
<path d="M8.9348 10.4426H15.1809C15.4911 10.4414 15.7882 10.3176 16.0075 10.0983C16.2269 9.87895 16.3506 9.58183 16.3519 9.27166C16.3441 8.79398 16.1839 7.00748 15.4457 7.309C15.3518 7.35262 15.279 7.43177 15.2434 7.52904C15.2078 7.62631 15.2123 7.73374 15.2559 7.82769C15.4293 8.24248 15.9297 9.60677 15.1809 9.66184H8.9348C8.83128 9.66174 8.73203 9.62054 8.65887 9.54731C8.58571 9.47407 8.54461 9.37479 8.54461 9.27127C8.54965 8.67858 8.70381 8.0967 8.99289 7.57926C9.28196 7.06183 9.69664 6.62549 10.1987 6.31047C10.7008 5.99545 11.2741 5.81189 11.8657 5.7767C12.4574 5.74152 13.0484 5.85585 13.5842 6.10915C13.6773 6.15455 13.7846 6.16113 13.8825 6.12744C13.9805 6.09374 14.061 6.02254 14.1064 5.92948C14.2951 5.52602 13.833 5.3358 13.5221 5.24128C13.9006 4.9379 14.1754 4.52443 14.3087 4.05805C14.442 3.59167 14.4271 3.0954 14.266 2.63786C14.105 2.18032 13.8058 1.78411 13.4098 1.504C13.0138 1.22388 12.5406 1.0737 12.0556 1.07422C11.5705 1.07474 11.0976 1.22593 10.7022 1.50689C10.3068 1.78785 10.0085 2.1847 9.84842 2.64258C9.68837 3.10046 9.67452 3.59676 9.80877 4.06286C9.94303 4.52895 10.2188 4.94183 10.5979 5.24441C10.0033 5.44925 9.46401 5.78847 9.02189 6.2357C8.01147 7.14027 6.80029 10.2391 8.9348 10.4426ZM12.0579 1.85459C12.472 1.85459 12.8692 2.0191 13.162 2.31195C13.4549 2.60479 13.6194 3.00197 13.6194 3.41612C13.6194 3.83026 13.4549 4.22744 13.162 4.52028C12.8692 4.81313 12.472 4.97764 12.0579 4.97764C11.6437 4.97764 11.2465 4.81313 10.9537 4.52028C10.6608 4.22744 10.4963 3.83026 10.4963 3.41612C10.4963 3.00197 10.6608 2.60479 10.9537 2.31195C11.2465 2.0191 11.6437 1.85459 12.0579 1.85459ZM8.80942 19.8009C8.71557 19.8445 8.64287 19.9235 8.60728 20.0207C8.57169 20.1179 8.57612 20.2252 8.6196 20.3191C8.79302 20.7339 9.29374 22.0986 8.54461 22.1537H2.29888C2.19529 22.1537 2.09595 22.1125 2.0227 22.0393C1.94945 21.966 1.9083 21.8667 1.9083 21.7631C1.90858 21.145 2.07182 20.538 2.38156 20.0031C2.6913 19.4682 3.1366 19.0245 3.67254 18.7166C4.16932 18.4364 4.72612 18.2797 5.2961 18.2595C5.86608 18.2393 6.43257 18.3563 6.94793 18.6006C6.99402 18.6233 7.04412 18.6366 7.09537 18.6398C7.14662 18.643 7.198 18.6361 7.24656 18.6194C7.29513 18.6027 7.33991 18.5766 7.37834 18.5425C7.41678 18.5085 7.4481 18.4671 7.47052 18.4209C7.65917 18.0175 7.19673 17.8273 6.88583 17.7331C7.26433 17.4298 7.53924 17.0163 7.67255 16.5499C7.80585 16.0835 7.79097 15.5872 7.62996 15.1297C7.46895 14.6721 7.16976 14.2759 6.77376 13.9957C6.37776 13.7156 5.90451 13.5654 5.41944 13.5659C4.93437 13.5664 4.46144 13.7176 4.06604 13.9986C3.67064 14.2796 3.3723 14.6765 3.21227 15.1344C3.05223 15.5923 3.03841 16.0886 3.17272 16.5547C3.30702 17.0208 3.58281 17.4337 3.96196 17.7363C3.72715 17.8165 3.50019 17.9181 3.28392 18.0397C2.62895 18.416 2.08478 18.9584 1.70626 19.6121C1.32774 20.2658 1.12826 21.0077 1.12793 21.7631C1.12824 22.0736 1.25169 22.3713 1.47121 22.5909C1.69073 22.8105 1.98839 22.934 2.29888 22.9345H8.54461C8.85485 22.9332 9.15203 22.8094 9.37137 22.59C9.59071 22.3706 9.71443 22.0734 9.71556 21.7631C9.70775 21.2862 9.54722 19.4982 8.80942 19.8009ZM5.42194 14.3464C5.83176 14.3529 6.22259 14.5203 6.51011 14.8124C6.79763 15.1045 6.95878 15.4979 6.95878 15.9078C6.95878 16.3176 6.79763 16.7111 6.51011 17.0032C6.22259 17.2953 5.83176 17.4626 5.42194 17.4691C5.01213 17.4626 4.62129 17.2953 4.33377 17.0032C4.04625 16.7111 3.88511 16.3176 3.88511 15.9078C3.88511 15.4979 4.04625 15.1045 4.33377 14.8124C4.62129 14.5203 5.01213 14.3529 5.42194 14.3464ZM21.7301 18.7275C21.288 18.2801 20.7485 17.9409 20.1538 17.7363C20.5329 17.4337 20.8087 17.0208 20.943 16.5547C21.0773 16.0886 21.0635 15.5923 20.9034 15.1344C20.7434 14.6765 20.4451 14.2796 20.0497 13.9986C19.6543 13.7176 19.1813 13.5664 18.6963 13.5659C18.2112 13.5654 17.738 13.7156 17.342 13.9957C16.946 14.2759 16.6468 14.6721 16.4858 15.1297C16.3247 15.5872 16.3099 16.0835 16.4432 16.5499C16.5765 17.0163 16.8514 17.4298 17.2299 17.7331C16.9194 17.8277 16.4562 18.0171 16.6456 18.4213C16.691 18.5144 16.7716 18.5856 16.8695 18.6193C16.9674 18.653 17.0747 18.6464 17.1678 18.601C19.4265 17.466 22.2594 19.2201 22.2074 21.7631C22.2074 21.8667 22.1663 21.966 22.093 22.0393C22.0198 22.1125 21.9204 22.1537 21.8168 22.1537H15.5711C14.8208 22.1017 15.3246 20.73 15.4961 20.3191C15.5396 20.2252 15.544 20.1179 15.5084 20.0207C15.4728 19.9235 15.4001 19.8445 15.3063 19.8009C14.5716 19.4942 14.4076 21.285 14.4002 21.7631C14.4013 22.0734 14.525 22.3706 14.7443 22.59C14.9637 22.8094 15.2609 22.9332 15.5711 22.9345H21.8168C23.9533 22.7302 22.7386 19.6309 21.7301 18.7275ZM18.6938 14.3464C19.1036 14.3529 19.4944 14.5203 19.7819 14.8124C20.0695 15.1045 20.2306 15.4979 20.2306 15.9078C20.2306 16.3176 20.0695 16.7111 19.7819 17.0032C19.4944 17.2953 19.1036 17.4626 18.6938 17.4691C18.284 17.4626 17.8931 17.2953 17.6056 17.0032C17.3181 16.7111 17.1569 16.3176 17.1569 15.9078C17.1569 15.4979 17.3181 15.1045 17.6056 14.8124C17.8931 14.5203 18.284 14.3529 18.6938 14.3464ZM14.7903 17.8597C14.867 17.8585 14.9417 17.8349 15.0051 17.7918C15.0685 17.7488 15.118 17.6881 15.1473 17.6172C15.1767 17.5464 15.1847 17.4685 15.1703 17.3932C15.1559 17.3179 15.1198 17.2484 15.0665 17.1934L12.448 14.5749V11.6139C12.4435 11.5135 12.4005 11.4186 12.3278 11.3491C12.2551 11.2796 12.1584 11.2408 12.0579 11.2408C11.9573 11.2408 11.8606 11.2796 11.7879 11.3491C11.7152 11.4186 11.6722 11.5135 11.6677 11.6139V14.5749L9.04924 17.1934C8.97985 17.2673 8.94197 17.3654 8.94362 17.4669C8.94526 17.5683 8.98631 17.6651 9.05806 17.7368C9.12981 17.8085 9.22665 17.8495 9.32808 17.8511C9.42951 17.8526 9.52757 17.8147 9.60151 17.7452L12.0579 15.2885L14.5146 17.7452C14.5508 17.7815 14.5937 17.8103 14.641 17.83C14.6884 17.8496 14.7391 17.8597 14.7903 17.8597Z" fill="white"/>
<path d="M8.9348 10.4426H15.1809C15.4911 10.4414 15.7882 10.3176 16.0075 10.0983C16.2269 9.87895 16.3506 9.58183 16.3519 9.27166C16.3441 8.79398 16.1839 7.00748 15.4457 7.309C15.3518 7.35262 15.279 7.43177 15.2434 7.52904C15.2078 7.62631 15.2123 7.73374 15.2559 7.82769C15.4293 8.24248 15.9297 9.60677 15.1809 9.66184H8.9348C8.83128 9.66174 8.73203 9.62054 8.65887 9.54731C8.58571 9.47407 8.54461 9.37479 8.54461 9.27127C8.54965 8.67858 8.70381 8.0967 8.99289 7.57926C9.28196 7.06183 9.69664 6.62549 10.1987 6.31047C10.7008 5.99545 11.2741 5.81189 11.8657 5.7767C12.4574 5.74152 13.0484 5.85585 13.5842 6.10915C13.6773 6.15455 13.7846 6.16113 13.8825 6.12744C13.9805 6.09374 14.061 6.02254 14.1064 5.92948C14.2951 5.52602 13.833 5.3358 13.5221 5.24128C13.9006 4.9379 14.1754 4.52443 14.3087 4.05805C14.442 3.59167 14.4271 3.0954 14.266 2.63786C14.105 2.18032 13.8058 1.78411 13.4098 1.504C13.0138 1.22388 12.5406 1.0737 12.0556 1.07422C11.5705 1.07474 11.0976 1.22593 10.7022 1.50689C10.3068 1.78785 10.0085 2.1847 9.84842 2.64258C9.68837 3.10046 9.67452 3.59676 9.80877 4.06286C9.94303 4.52895 10.2188 4.94183 10.5979 5.24441C10.0033 5.44925 9.46401 5.78847 9.02189 6.2357C8.01147 7.14027 6.80029 10.2391 8.9348 10.4426ZM12.0579 1.85459C12.472 1.85459 12.8692 2.0191 13.162 2.31195C13.4549 2.60479 13.6194 3.00197 13.6194 3.41612C13.6194 3.83026 13.4549 4.22744 13.162 4.52028C12.8692 4.81313 12.472 4.97764 12.0579 4.97764C11.6437 4.97764 11.2465 4.81313 10.9537 4.52028C10.6608 4.22744 10.4963 3.83026 10.4963 3.41612C10.4963 3.00197 10.6608 2.60479 10.9537 2.31195C11.2465 2.0191 11.6437 1.85459 12.0579 1.85459ZM8.80942 19.8009C8.71557 19.8445 8.64287 19.9235 8.60728 20.0207C8.57169 20.1179 8.57612 20.2252 8.6196 20.3191C8.79302 20.7339 9.29374 22.0986 8.54461 22.1537H2.29888C2.19529 22.1537 2.09595 22.1125 2.0227 22.0393C1.94945 21.966 1.9083 21.8667 1.9083 21.7631C1.90858 21.145 2.07182 20.538 2.38156 20.0031C2.6913 19.4682 3.1366 19.0245 3.67254 18.7166C4.16932 18.4364 4.72612 18.2797 5.2961 18.2595C5.86608 18.2393 6.43257 18.3563 6.94793 18.6006C6.99402 18.6233 7.04412 18.6366 7.09537 18.6398C7.14662 18.643 7.198 18.6361 7.24656 18.6194C7.29513 18.6027 7.33991 18.5766 7.37834 18.5425C7.41678 18.5085 7.4481 18.4671 7.47052 18.4209C7.65917 18.0175 7.19673 17.8273 6.88583 17.7331C7.26433 17.4298 7.53924 17.0163 7.67255 16.5499C7.80585 16.0835 7.79097 15.5872 7.62996 15.1297C7.46895 14.6721 7.16976 14.2759 6.77376 13.9957C6.37776 13.7156 5.90451 13.5654 5.41944 13.5659C4.93437 13.5664 4.46144 13.7176 4.06604 13.9986C3.67064 14.2796 3.3723 14.6765 3.21227 15.1344C3.05223 15.5923 3.03841 16.0886 3.17272 16.5547C3.30702 17.0208 3.58281 17.4337 3.96196 17.7363C3.72715 17.8165 3.50019 17.9181 3.28392 18.0397C2.62895 18.416 2.08478 18.9584 1.70626 19.6121C1.32774 20.2658 1.12826 21.0077 1.12793 21.7631C1.12824 22.0736 1.25169 22.3713 1.47121 22.5909C1.69073 22.8105 1.98839 22.934 2.29888 22.9345H8.54461C8.85485 22.9332 9.15203 22.8094 9.37137 22.59C9.59071 22.3706 9.71443 22.0734 9.71556 21.7631C9.70775 21.2862 9.54722 19.4982 8.80942 19.8009ZM5.42194 14.3464C5.83176 14.3529 6.22259 14.5203 6.51011 14.8124C6.79763 15.1045 6.95878 15.4979 6.95878 15.9078C6.95878 16.3176 6.79763 16.7111 6.51011 17.0032C6.22259 17.2953 5.83176 17.4626 5.42194 17.4691C5.01213 17.4626 4.62129 17.2953 4.33377 17.0032C4.04625 16.7111 3.88511 16.3176 3.88511 15.9078C3.88511 15.4979 4.04625 15.1045 4.33377 14.8124C4.62129 14.5203 5.01213 14.3529 5.42194 14.3464ZM21.7301 18.7275C21.288 18.2801 20.7485 17.9409 20.1538 17.7363C20.5329 17.4337 20.8087 17.0208 20.943 16.5547C21.0773 16.0886 21.0635 15.5923 20.9034 15.1344C20.7434 14.6765 20.4451 14.2796 20.0497 13.9986C19.6543 13.7176 19.1813 13.5664 18.6963 13.5659C18.2112 13.5654 17.738 13.7156 17.342 13.9957C16.946 14.2759 16.6468 14.6721 16.4858 15.1297C16.3247 15.5872 16.3099 16.0835 16.4432 16.5499C16.5765 17.0163 16.8514 17.4298 17.2299 17.7331C16.9194 17.8277 16.4562 18.0171 16.6456 18.4213C16.691 18.5144 16.7716 18.5856 16.8695 18.6193C16.9674 18.653 17.0747 18.6464 17.1678 18.601C19.4265 17.466 22.2594 19.2201 22.2074 21.7631C22.2074 21.8667 22.1663 21.966 22.093 22.0393C22.0198 22.1125 21.9204 22.1537 21.8168 22.1537H15.5711C14.8208 22.1017 15.3246 20.73 15.4961 20.3191C15.5396 20.2252 15.544 20.1179 15.5084 20.0207C15.4728 19.9235 15.4001 19.8445 15.3063 19.8009C14.5716 19.4942 14.4076 21.285 14.4002 21.7631C14.4013 22.0734 14.525 22.3706 14.7443 22.59C14.9637 22.8094 15.2609 22.9332 15.5711 22.9345H21.8168C23.9533 22.7302 22.7386 19.6309 21.7301 18.7275ZM18.6938 14.3464C19.1036 14.3529 19.4944 14.5203 19.7819 14.8124C20.0695 15.1045 20.2306 15.4979 20.2306 15.9078C20.2306 16.3176 20.0695 16.7111 19.7819 17.0032C19.4944 17.2953 19.1036 17.4626 18.6938 17.4691C18.284 17.4626 17.8931 17.2953 17.6056 17.0032C17.3181 16.7111 17.1569 16.3176 17.1569 15.9078C17.1569 15.4979 17.3181 15.1045 17.6056 14.8124C17.8931 14.5203 18.284 14.3529 18.6938 14.3464ZM14.7903 17.8597C14.867 17.8585 14.9417 17.8349 15.0051 17.7918C15.0685 17.7488 15.118 17.6881 15.1473 17.6172C15.1767 17.5464 15.1847 17.4685 15.1703 17.3932C15.1559 17.3179 15.1198 17.2484 15.0665 17.1934L12.448 14.5749V11.6139C12.4435 11.5135 12.4005 11.4186 12.3278 11.3491C12.2551 11.2796 12.1584 11.2408 12.0579 11.2408C11.9573 11.2408 11.8606 11.2796 11.7879 11.3491C11.7152 11.4186 11.6722 11.5135 11.6677 11.6139V14.5749L9.04924 17.1934C8.97985 17.2673 8.94197 17.3654 8.94362 17.4669C8.94526 17.5683 8.98631 17.6651 9.05806 17.7368C9.12981 17.8085 9.22665 17.8495 9.32808 17.8511C9.42951 17.8526 9.52757 17.8147 9.60151 17.7452L12.0579 15.2885L14.5146 17.7452C14.5508 17.7815 14.5937 17.8103 14.641 17.83C14.6884 17.8496 14.7391 17.8597 14.7903 17.8597Z" stroke="white" stroke-width="0.4" mask="url(#path-1-outside-1_155_47243)"/>
</svg>
