<svg width="22" height="23" viewBox="0 0 22 23" fill="none" xmlns="http://www.w3.org/2000/svg">
<path d="M21.9109 10.9615L19.4617 1.82018C19.415 1.6457 19.3344 1.48215 19.2244 1.33884C19.1145 1.19554 18.9774 1.0753 18.821 0.984994C18.6646 0.894687 18.4919 0.836082 18.3128 0.812526C18.1338 0.78897 17.9518 0.800925 17.7774 0.847708L1.83975 5.11845C1.71872 5.15257 1.60303 5.20336 1.496 5.26936H1.375C1.01033 5.26936 0.66059 5.41422 0.402728 5.67209C0.144865 5.92995 0 6.27968 0 6.64436L0 16.2693C0 16.634 0.144865 16.9838 0.402728 17.2416C0.66059 17.4995 1.01033 17.6443 1.375 17.6443H1.49634C1.60335 17.7104 1.71905 17.7612 1.84009 17.7952L17.7777 22.066C17.9521 22.1128 18.1341 22.1247 18.3132 22.1012C18.4923 22.0776 18.6649 22.019 18.8213 21.9287C18.9778 21.8384 19.1149 21.7182 19.2248 21.5749C19.3347 21.4316 19.4154 21.268 19.4621 21.0935L21.9532 11.7965C21.985 11.677 22.0008 11.5537 22 11.43C21.9982 11.2698 21.9681 11.1112 21.9109 10.9615ZM17.9558 1.51183C18.1318 1.46469 18.3195 1.48941 18.4773 1.58056C18.6352 1.67171 18.7504 1.82182 18.7976 1.99789L20.9711 10.1104L19.25 9.64873V6.64436C19.25 6.27968 19.1051 5.92995 18.8472 5.67209C18.5894 5.41422 18.2396 5.26936 17.875 5.26936H3.93249L17.9558 1.51183ZM1.375 16.9568C1.19266 16.9568 1.01779 16.8844 0.888863 16.7555C0.759932 16.6265 0.687499 16.4517 0.687499 16.2693V6.64436C0.687499 6.46202 0.759932 6.28715 0.888863 6.15822C1.01779 6.02929 1.19266 5.95686 1.375 5.95686H17.875C18.0573 5.95686 18.2322 6.02929 18.3611 6.15822C18.49 6.28715 18.5625 6.46202 18.5625 6.64436V16.2693C18.5625 16.4517 18.49 16.6265 18.3611 16.7555C18.2322 16.8844 18.0573 16.9568 17.875 16.9568H1.375ZM21.2888 11.6184L18.7976 20.9158C18.7504 21.0919 18.6352 21.242 18.4773 21.3331C18.3195 21.4243 18.1318 21.449 17.9558 21.4019L3.93284 17.6443H17.875C18.2396 17.6443 18.5894 17.4995 18.8472 17.2416C19.1051 16.9838 19.25 16.634 19.25 16.2693V10.3606L20.8027 10.7766C20.9788 10.8238 21.1289 10.939 21.22 11.0969C21.3112 11.2547 21.3359 11.4423 21.2888 11.6184Z" fill="white"/>
<path d="M17.1875 7.67383H12.0312C11.9401 7.67383 11.8526 7.71004 11.7882 7.77451C11.7237 7.83897 11.6875 7.92641 11.6875 8.01758C11.6875 8.10874 11.7237 8.19618 11.7882 8.26064C11.8526 8.32511 11.9401 8.36133 12.0312 8.36133H17.1875C17.2786 8.36133 17.3661 8.32511 17.4305 8.26064C17.495 8.19618 17.5312 8.10874 17.5312 8.01758C17.5312 7.92641 17.495 7.83897 17.4305 7.77451C17.3661 7.71004 17.2786 7.67383 17.1875 7.67383ZM17.1875 9.39258H12.0312C11.9401 9.39258 11.8526 9.42879 11.7882 9.49326C11.7237 9.55772 11.6875 9.64516 11.6875 9.73632C11.6875 9.82749 11.7237 9.91493 11.7882 9.97939C11.8526 10.0439 11.9401 10.0801 12.0312 10.0801H17.1875C17.2786 10.0801 17.3661 10.0439 17.4305 9.97939C17.495 9.91493 17.5312 9.82749 17.5312 9.73632C17.5312 9.64516 17.495 9.55772 17.4305 9.49326C17.3661 9.42879 17.2786 9.39258 17.1875 9.39258ZM17.1875 11.1113H12.0312C11.9401 11.1113 11.8526 11.1475 11.7882 11.212C11.7237 11.2765 11.6875 11.3639 11.6875 11.4551C11.6875 11.5462 11.7237 11.6337 11.7882 11.6981C11.8526 11.7626 11.9401 11.7988 12.0312 11.7988H17.1875C17.2786 11.7988 17.3661 11.7626 17.4305 11.6981C17.495 11.6337 17.5312 11.5462 17.5312 11.4551C17.5312 11.3639 17.495 11.2765 17.4305 11.212C17.3661 11.1475 17.2786 11.1113 17.1875 11.1113ZM17.1875 12.8301H12.0312C11.9401 12.8301 11.8526 12.8663 11.7882 12.9308C11.7237 12.9952 11.6875 13.0827 11.6875 13.1738C11.6875 13.265 11.7237 13.3524 11.7882 13.4169C11.8526 13.4814 11.9401 13.5176 12.0312 13.5176H17.1875C17.2786 13.5176 17.3661 13.4814 17.4305 13.4169C17.495 13.3524 17.5312 13.265 17.5312 13.1738C17.5312 13.0827 17.495 12.9952 17.4305 12.9308C17.3661 12.8663 17.2786 12.8301 17.1875 12.8301ZM17.1875 14.5488H12.0312C11.9401 14.5488 11.8526 14.585 11.7882 14.6495C11.7237 14.714 11.6875 14.8014 11.6875 14.8926C11.6875 14.9837 11.7237 15.0712 11.7882 15.1356C11.8526 15.2001 11.9401 15.2363 12.0312 15.2363H17.1875C17.2786 15.2363 17.3661 15.2001 17.4305 15.1356C17.495 15.0712 17.5312 14.9837 17.5312 14.8926C17.5312 14.8014 17.495 14.714 17.4305 14.6495C17.3661 14.585 17.2786 14.5488 17.1875 14.5488ZM10.3125 8.70508H8.70202C8.7807 8.54452 8.82206 8.36825 8.82302 8.18945C8.82302 7.87036 8.69626 7.56434 8.47064 7.33871C8.24501 7.11309 7.93899 6.98633 7.6199 6.98633C7.34002 6.98696 7.06428 7.05393 6.81529 7.18174C6.5663 7.30955 6.35115 7.49456 6.18749 7.72161C6.02384 7.49456 5.80869 7.30955 5.5597 7.18174C5.31071 7.05393 5.03497 6.98696 4.75509 6.98633C4.436 6.98633 4.12998 7.11309 3.90435 7.33871C3.67872 7.56434 3.55197 7.87036 3.55197 8.18945C3.55293 8.36825 3.59429 8.54452 3.67297 8.70508H2.0625C1.97133 8.70508 1.8839 8.74129 1.81943 8.80576C1.75497 8.87022 1.71875 8.95766 1.71875 9.04883V10.7676C1.71875 10.8587 1.75497 10.9462 1.81943 11.0106C1.8839 11.0751 1.97133 11.1113 2.0625 11.1113H2.40625V15.5801C2.40625 15.6712 2.44247 15.7587 2.50693 15.8231C2.5714 15.8876 2.65883 15.9238 2.75 15.9238H9.62499C9.71616 15.9238 9.80359 15.8876 9.86806 15.8231C9.93252 15.7587 9.96874 15.6712 9.96874 15.5801V11.1113H10.3125C10.4037 11.1113 10.4911 11.0751 10.5556 11.0106C10.62 10.9462 10.6562 10.8587 10.6562 10.7676V9.04883C10.6562 8.95766 10.62 8.87022 10.5556 8.80576C10.4911 8.74129 10.4037 8.70508 10.3125 8.70508ZM5.15625 15.2363H3.09375V11.1113H5.15625V15.2363ZM5.15625 10.4238H2.40625V9.39258H5.15625V10.4238ZM4.75509 8.70508C4.61834 8.70508 4.48719 8.65075 4.39049 8.55405C4.29379 8.45735 4.23947 8.3262 4.23947 8.18945C4.23947 8.0527 4.29379 7.92155 4.39049 7.82485C4.48719 7.72815 4.61834 7.67383 4.75509 7.67383C5.03404 7.67377 5.3024 7.78067 5.50492 7.97251C5.70744 8.16435 5.8287 8.42653 5.84374 8.70508H4.75509ZM6.53124 15.2363H5.84374V9.39258H6.53124V15.2363ZM7.6199 7.67383C7.75665 7.67383 7.8878 7.72815 7.9845 7.82485C8.0812 7.92155 8.13552 8.0527 8.13552 8.18945C8.13552 8.3262 8.0812 8.45735 7.9845 8.55405C7.8878 8.65075 7.75665 8.70508 7.6199 8.70508H6.53124C6.54629 8.42653 6.66755 8.16435 6.87007 7.97251C7.07258 7.78067 7.34094 7.67377 7.6199 7.67383ZM9.28124 15.2363H7.21874V11.1113H9.28124V15.2363ZM9.96874 10.4238H7.21874V9.39258H9.96874V10.4238Z" fill="white"/>
</svg>
