<svg width="22" height="22" viewBox="0 0 22 22" fill="none" xmlns="http://www.w3.org/2000/svg">
<path d="M20.1663 11.0003V15.5837C20.1663 18.3337 18.333 20.167 15.583 20.167H6.41634C3.66634 20.167 1.83301 18.3337 1.83301 15.5837V11.0003C1.83301 8.50699 3.33634 6.76533 5.67384 6.47199C5.91217 6.43533 6.15967 6.41699 6.41634 6.41699H15.583C15.8213 6.41699 16.0505 6.42616 16.2705 6.46283C18.6355 6.73783 20.1663 8.48866 20.1663 11.0003Z" stroke="white" stroke-width="1.5" stroke-linecap="round" stroke-linejoin="round"/>
<path d="M20.1664 11.458H17.4164C16.4081 11.458 15.5831 12.283 15.5831 13.2913C15.5831 14.2996 16.4081 15.1246 17.4164 15.1246H20.1664M16.2715 6.46214C16.0515 6.42547 15.8223 6.4163 15.584 6.4163H6.4173C6.16064 6.4163 5.91314 6.43464 5.6748 6.4713C5.80314 6.21464 5.98647 5.9763 6.20647 5.7563L9.18564 2.76797C9.79066 2.169 10.6076 1.83301 11.459 1.83301C12.3103 1.83301 13.1273 2.169 13.7323 2.76797L15.3365 4.39047C15.9231 4.96797 16.2348 5.7013 16.2715 6.46214Z" stroke="white" stroke-width="1.5" stroke-linecap="round" stroke-linejoin="round"/>
</svg>
