<svg width="148" height="59" viewBox="0 0 148 59" fill="none" xmlns="http://www.w3.org/2000/svg">
<g filter="url(#filter0_d_152_9512)">
<path d="M28.4 37.4465C27.3889 37.4465 26.44 37.3532 25.5533 37.1665C24.6667 36.9954 23.8811 36.7076 23.1967 36.3032C22.5278 35.8987 21.9989 35.3698 21.61 34.7165C21.2211 34.0476 21.0267 33.2309 21.0267 32.2665C21.0267 32.2043 21.0267 32.1343 21.0267 32.0565C21.0267 31.9787 21.0344 31.9165 21.05 31.8698H25.0867C25.0867 31.9165 25.0789 31.9787 25.0633 32.0565C25.0633 32.1187 25.0633 32.1732 25.0633 32.2198C25.0633 32.7176 25.1878 33.1221 25.4367 33.4332C25.7011 33.7287 26.0667 33.9465 26.5333 34.0865C27 34.2109 27.5444 34.2732 28.1667 34.2732C28.5089 34.2732 28.8278 34.2576 29.1233 34.2265C29.4189 34.1954 29.6833 34.1409 29.9167 34.0632C30.15 33.9854 30.3522 33.8921 30.5233 33.7832C30.71 33.6587 30.8422 33.5187 30.92 33.3632C31.0133 33.1921 31.06 32.9976 31.06 32.7798C31.06 32.4221 30.92 32.1265 30.64 31.8932C30.3756 31.6598 30.01 31.4654 29.5433 31.3098C29.0922 31.1543 28.5789 31.0065 28.0033 30.8665C27.4278 30.7265 26.8289 30.5787 26.2067 30.4232C25.5844 30.2676 24.9856 30.0732 24.41 29.8398C23.8344 29.6065 23.3133 29.3109 22.8467 28.9532C22.3956 28.5954 22.03 28.1521 21.75 27.6232C21.4856 27.0787 21.3533 26.4254 21.3533 25.6632C21.3533 24.8232 21.5322 24.0998 21.89 23.4932C22.2478 22.8709 22.7378 22.3654 23.36 21.9765C23.9978 21.5876 24.7289 21.3076 25.5533 21.1365C26.3778 20.9498 27.2567 20.8565 28.19 20.8565C29.1078 20.8565 29.9633 20.9498 30.7567 21.1365C31.5656 21.3232 32.2811 21.6187 32.9033 22.0232C33.5256 22.4121 34.0078 22.9098 34.35 23.5165C34.7078 24.1076 34.8944 24.8232 34.91 25.6632V25.9432H30.8967V25.7798C30.8967 25.4221 30.7956 25.1109 30.5933 24.8465C30.4067 24.5665 30.1189 24.3487 29.73 24.1932C29.3411 24.0221 28.8589 23.9365 28.2833 23.9365C27.7078 23.9365 27.2178 23.9909 26.8133 24.0998C26.4244 24.2087 26.1211 24.3643 25.9033 24.5665C25.7011 24.7687 25.6 25.0098 25.6 25.2898C25.6 25.6321 25.7322 25.9121 25.9967 26.1298C26.2767 26.3476 26.65 26.5343 27.1167 26.6898C27.5833 26.8454 28.1044 26.9932 28.68 27.1332C29.2556 27.2576 29.8467 27.3976 30.4533 27.5532C31.0756 27.6932 31.6744 27.8798 32.25 28.1132C32.8256 28.3309 33.3467 28.6187 33.8133 28.9765C34.28 29.3187 34.6456 29.7465 34.91 30.2598C35.19 30.7732 35.33 31.3954 35.33 32.1265C35.33 33.4021 35.0267 34.4287 34.42 35.2065C33.8289 35.9843 33.0044 36.5521 31.9467 36.9098C30.9044 37.2676 29.7222 37.4465 28.4 37.4465ZM38.0662 37.1665V21.1365H51.2962V24.4032H42.2429V27.4132H50.1529V30.6098H42.2429V33.8998H51.4595V37.1665H38.0662ZM61.638 37.4465C59.0557 37.4465 57.088 36.7621 55.7346 35.3932C54.3969 34.0243 53.728 31.9398 53.728 29.1398C53.728 27.2887 54.0546 25.7565 54.708 24.5432C55.3769 23.3143 56.3413 22.3965 57.6013 21.7898C58.8769 21.1676 60.4091 20.8565 62.198 20.8565C63.2713 20.8565 64.2824 20.9809 65.2313 21.2298C66.1802 21.4787 67.0202 21.8521 67.7513 22.3498C68.4824 22.8321 69.0502 23.4465 69.4546 24.1932C69.8591 24.9243 70.0613 25.7876 70.0613 26.7832H65.9546C65.9546 26.3632 65.8613 25.9898 65.6746 25.6632C65.488 25.3209 65.2235 25.0409 64.8813 24.8232C64.5546 24.5898 64.1735 24.4187 63.738 24.3098C63.3024 24.1854 62.8435 24.1232 62.3613 24.1232C61.6457 24.1232 61.008 24.2165 60.448 24.4032C59.9035 24.5898 59.4524 24.8776 59.0946 25.2665C58.7369 25.6554 58.4646 26.1298 58.278 26.6898C58.1069 27.2498 58.0213 27.9032 58.0213 28.6498V29.6765C58.0213 30.6721 58.1769 31.5043 58.488 32.1732C58.7991 32.8421 59.2657 33.3476 59.888 33.6898C60.5257 34.0165 61.3035 34.1798 62.2213 34.1798C62.9369 34.1798 63.5746 34.0709 64.1346 33.8532C64.7102 33.6354 65.1613 33.3243 65.488 32.9198C65.8302 32.4998 66.0013 32.0021 66.0013 31.4265V31.3098H61.6846V28.3698H70.0613V37.1665H67.6346L67.238 35.4865C66.7557 35.9221 66.2346 36.2876 65.6746 36.5832C65.1302 36.8787 64.5235 37.0965 63.8546 37.2365C63.2013 37.3765 62.4624 37.4465 61.638 37.4465ZM73.408 37.1665V21.1365H86.638V24.4032H77.5847V27.4132H85.4947V30.6098H77.5847V33.8998H86.8013V37.1665H73.408ZM89.6764 37.1665V21.1365H93.3864L99.2198 28.5798C99.3287 28.7043 99.4687 28.8832 99.6398 29.1165C99.8264 29.3498 100.005 29.5909 100.176 29.8398C100.348 30.0732 100.472 30.2598 100.55 30.3998L100.666 30.3765C100.666 30.0343 100.666 29.7076 100.666 29.3965C100.666 29.0698 100.666 28.7976 100.666 28.5798V21.1365H104.54V37.1665H100.853L94.6698 29.3265C94.4675 29.0776 94.2731 28.8209 94.0864 28.5565C93.9153 28.2921 93.7753 28.0743 93.6664 27.9032L93.5498 27.9265C93.5498 28.1754 93.5498 28.4321 93.5498 28.6965C93.5498 28.9454 93.5498 29.1554 93.5498 29.3265V37.1665H89.6764ZM112.056 37.1665V24.5665H106.852V21.1365H121.436V24.5665H116.232V37.1665H112.056ZM122.556 37.1665V33.2698H126.616V37.1665H122.556Z" fill="white"/>
</g>
<defs>
<filter id="filter0_d_152_9512" x="0.359701" y="0.189779" width="146.922" height="57.9232" filterUnits="userSpaceOnUse" color-interpolation-filters="sRGB">
<feFlood flood-opacity="0" result="BackgroundImageFix"/>
<feColorMatrix in="SourceAlpha" type="matrix" values="0 0 0 0 0 0 0 0 0 0 0 0 0 0 0 0 0 0 127 0" result="hardAlpha"/>
<feOffset/>
<feGaussianBlur stdDeviation="10.3333"/>
<feComposite in2="hardAlpha" operator="out"/>
<feColorMatrix type="matrix" values="0 0 0 0 0 0 0 0 0 0 0 0 0 0 0 0 0 0 0.3 0"/>
<feBlend mode="normal" in2="BackgroundImageFix" result="effect1_dropShadow_152_9512"/>
<feBlend mode="normal" in="SourceGraphic" in2="effect1_dropShadow_152_9512" result="shape"/>
</filter>
</defs>
</svg>
