<svg width="25" height="28" viewBox="0 0 25 28" fill="none" xmlns="http://www.w3.org/2000/svg">
<circle cx="12.5" cy="13.5" r="12.5" fill="#E3CAA4"/>
<path d="M11.904 15.928V15.176C11.904 14.7387 11.968 14.3707 12.096 14.072C12.224 13.7733 12.384 13.5173 12.576 13.304C12.7787 13.08 12.992 12.888 13.216 12.728C13.44 12.5573 13.648 12.3867 13.84 12.216C14.0427 12.0453 14.208 11.8587 14.336 11.656C14.464 11.4533 14.528 11.2133 14.528 10.936C14.528 10.8293 14.512 10.7013 14.48 10.552C14.448 10.392 14.3787 10.2373 14.272 10.088C14.1653 9.93867 14 9.816 13.776 9.72C13.552 9.61333 13.248 9.56 12.864 9.56C12.4693 9.56 12.1493 9.61867 11.904 9.736C11.6693 9.85333 11.4933 10.0027 11.376 10.184C11.2587 10.3547 11.1787 10.536 11.136 10.728C11.0933 10.9093 11.072 11.0747 11.072 11.224C11.072 11.2987 11.072 11.3733 11.072 11.448C11.072 11.512 11.0773 11.5813 11.088 11.656H9.104C9.09333 11.6027 9.07733 11.5333 9.056 11.448C9.04533 11.352 9.04 11.2347 9.04 11.096C9.04 10.7333 9.09333 10.392 9.2 10.072C9.30667 9.74133 9.46133 9.44267 9.664 9.176C9.87733 8.89867 10.144 8.664 10.464 8.472C10.784 8.26933 11.152 8.11467 11.568 8.008C11.9947 7.89067 12.4747 7.832 13.008 7.832C13.4453 7.832 13.8507 7.87467 14.224 7.96C14.608 8.03467 14.944 8.152 15.232 8.312C15.5307 8.46133 15.7813 8.65333 15.984 8.888C16.1973 9.112 16.3573 9.37333 16.464 9.672C16.5813 9.97067 16.64 10.3067 16.64 10.68C16.64 11.1707 16.5707 11.5867 16.432 11.928C16.2933 12.2693 16.112 12.5627 15.888 12.808C15.664 13.0427 15.4293 13.256 15.184 13.448C14.9387 13.6293 14.704 13.8107 14.48 13.992C14.256 14.1733 14.0747 14.376 13.936 14.6C13.7973 14.824 13.728 15.096 13.728 15.416V15.928H11.904ZM11.808 19V16.952H13.824V19H11.808Z" fill="#4F1919"/>
</svg>
